<?xml version="1.0" encoding="utf-8"?>
<!-- Generator: Adobe Illustrator 26.3.1, SVG Export Plug-In . SVG Version: 6.00 Build 0)  -->
<svg version="1.1" id="Layer_1" xmlns="http://www.w3.org/2000/svg" xmlns:xlink="http://www.w3.org/1999/xlink" x="0px" y="0px"
	 viewBox="0 0 1024 242.5" style="enable-background:new 0 0 1024 242.5;" xml:space="preserve">
<style type="text/css">
	.st0{fill:#42210B;}
</style>
<g>
	<g>
		<path class="st0" d="M40.7,100.6c28,0,45.5,13.4,45.5,37.6c0,28.7-25.5,46.2-54.1,46.2c-6.6,0-10.9-0.9-10.9-0.9
			c-0.3-2.2,0-4.4,1.1-6.4c0,0,3.7,0.8,8.9,0.8c22.7,0,42.9-14.1,42.9-36.6c0-18.4-13.4-29.5-34.6-29.5c-5.8,0-9.5,0.9-9.5,0.9
			l-2.4-2.4l8.6-51l26.4-2.2c13.3-1.1,18.3-3.4,20.7-18.4l3.4,0.4c0.3,9.2,0,18.4-1.1,27.5l-1.6,1.1l-43.8,2.7l-5.1,30.6
			C36.5,100.7,38.4,100.6,40.7,100.6L40.7,100.6z"/>
		<path class="st0" d="M144.8,53.6c18.7,0,34.5,15.2,34.3,47.7c-0.3,64.4-60.5,83-60.5,83l-1.8-4.9c0,0,49.4-18.1,49.6-75.9
			c0.1-28.3-10.8-43.1-25-43.1c-14.7,0-21.6,16.1-21.6,32.4c0,19.3,9.2,28.4,21.4,28.4c8.3,0,13.1-4.3,13.1-4.3l1.6,4.2
			c0,0-8.1,8.6-21.8,8.6c-16.1,0-27-12-27-32.9C107.1,68.2,126.8,53.6,144.8,53.6L144.8,53.6z"/>
		<path class="st0" d="M266.4,150.4c0,0-8.1-0.5-35.3-0.5c-23.4,0-32.4,0.4-32.4,0.4l-1.3-4.6c0,0,51.4-33.5,51.4-64.2
			c0-11.2-6.7-18.7-18-18.7c-13.6,0-15.6,9.2-12.3,16.9c-4.4,2.1-9,3.5-13.6,4.3c0,0-2.9-2.2-3-5.5c-0.3-7.7,17.2-23.1,36.5-23.1
			c14,0,24.1,8.7,24.1,22.6c0,26.8-35.4,52.8-47.8,61.1c3.7,0.2,11.5,0.5,24.6,0.5c18.9,0,24.5-3.6,27.6-17.6l3.4,0.3
			c-0.3,9.3-1.2,18.3-2.6,27L266.4,150.4L266.4,150.4z"/>
		<path class="st0" d="M383.3,94c25.6,0,41.5-11.7,41.5-31.5c0-19-13.6-29.1-37-29.1c-6,0-11.3,0.6-14.8,1.2
			c-0.8,7.8-2.5,31.6-2.5,96.7c0,14.9,13.7,14.3,21.9,14.3c-0.1,1.7-0.4,3.3-0.9,4.8c-1.3-0.1-11.6-0.4-27.5-0.4
			c-15.4,0-25.5,0.9-25.5,0.9c-0.2-1.2-0.5-2.5-0.8-3.7l17.6-7.2c0.9-9.5,2.2-34.2,2.3-94.5c0-14.9-12.3-14.3-20.5-14.3
			c0.1-1.7,0.4-3.3,0.9-4.8c1.3,0.1,11,0.4,26.1,0.4h24.3c32,0,50.8,11.4,50.8,33.7c0,24.3-20.9,40.5-54.7,40.5L383.3,94L383.3,94z"
			/>
		<path class="st0" d="M490.3,146c-0.1,1.5-0.4,3-0.8,4.3c0,0-7.6-0.4-17.9-0.4c-8.9,0-15.9,0.6-17.7,0.7c-0.2-1.1-0.4-2.2-0.7-3.3
			l10.5-5c0.9-5.8,2.1-18.3,2.1-43.1v-1.6v-1.3v-4.1l0-4.5c0-8.7-2.9-11.4-12.2-11.4h-1.7l-0.6-3.8c0,0,13.3-4.1,24.3-4.1
			c2.5,0,3.5,1,3.5,3c0,5.1-1.6,11-1.6,39.9v23.4c0.1,8.3,3.2,11.3,11.6,11.3L490.3,146z M462.1,36.8c0-5.3,6.9-10.4,10.4-10.4
			c4.4,0,8.7,3.4,8.7,7.8c0,5.1-5.9,10.8-9.6,10.8C467.2,45.1,462.1,41.2,462.1,36.8z"/>
		<path class="st0" d="M594,146c-0.1,1.5-0.4,3-0.8,4.3c0,0-7.5-0.4-17.6-0.4c-8.8,0-15.7,0.6-17.5,0.7c-0.2-1.1-0.4-2.2-0.7-3.3
			l10.3-4.9c0.9-5.1,2-15.8,2-36.1c0-22.1-5.8-31-19.7-31c-8.2,0-15.4,3.2-20.1,6c-0.4,3-1.3,14.6-1.3,53.7
			c0.1,7.8,3.1,10.8,11.1,10.8h0.9c-0.1,1.5-0.4,3-0.8,4.3c0,0-7.3-0.4-17.1-0.4c-8.8,0-15.7,0.6-17.5,0.7c-0.2-1.1-0.4-2.2-0.7-3.3
			l10.2-4.8c0.9-5.8,2.1-18.9,2.1-45.6v-9.8c-0.1-8.2-3.1-10.8-12.2-10.8h-1.7l-0.6-3.8c0,0,13-4.1,23.7-4.1c2.2,0,2.9,1,2.9,2.6
			c0,1.7-0.3,3.4-0.3,6.1c6.2-4.3,16.9-10,29.5-10c16,0,23.6,9.2,23.6,30.7c0,13.6-0.1,24.2-0.2,37.5c0.2,7.8,3.3,10.7,11.4,10.7
			L594,146z"/>
		<path class="st0" d="M647.1,142.9c11.4,0,19.6-6.7,19.6-6.7l2.5,3.3c0,0-11.6,12.5-28.3,12.5c-21.1,0-36-15.1-36-39.7
			c0-28.4,20.6-45.2,41-45.2c16.9,0,23.4,18.7,23.4,32.5c0,4.5-0.6,6.3-0.6,6.3s-6.3,0.7-39.1,0.7h-12.1
			C617.5,128.4,629.2,142.8,647.1,142.9L647.1,142.9z M617.8,101h10.3c17.4,0,25.3-0.8,28.7-1.3c-0.3-7-2.3-25.4-16.1-25.4
			C627.1,74.2,619.3,85.9,617.8,101z"/>
		<path class="st0" d="M768.9,147.5c0,0-13,4.1-23.7,4.1c-2.2,0-2.9-1-2.9-2.6c0-1.9,0.4-3.7,0.3-7c-6.1,4.3-16.4,10-28.1,10
			c-18.2,0-30.2-15.3-30.2-38.4c0-29.3,20.9-46.5,41.3-46.5c8.4,0,13.7,2.2,17.1,4.6v-26h0l0-1.1v-9.5c-0.1-8.2-3.1-10.8-12.2-10.8
			h-1.7l-0.6-3.8c0,0,13.3-4.1,24.4-4.1c2.5,0,3.5,1,3.5,3c0,5.1-1.6,11-1.6,39.9v72.9c0,8.7,2.9,11.4,12.2,11.4h1.7L768.9,147.5z
			 M697,109.8c0,22.5,11.2,33.9,25.1,33.9c8,0,15-3.3,19.3-6.1c0.5-4.5,1.2-15.1,1.2-37.1V82.7c-6.4-2.6-18.9-7.1-26.2-7.1
			C704.6,75.6,696.9,90.7,697,109.8L697,109.8z"/>
		<path class="st0" d="M855.2,142.8c0,0-7.2,9.2-18.1,9.2c-5.8,0-9.4-2.7-9.5-9.9c-5.8,4.3-15.6,9.9-27.5,9.9c-13,0-19-6.8-19-17.3
			c0-14,10.5-20.2,32.6-24l15.5-2.6c0-1.8,0.1-3.6,0.1-5.5c0-20.5-6.5-28.9-17.7-28.9c-9.9,0-11.1,6.2-8.9,12
			c-4.8,2.1-9.7,3.6-14.6,4.5c0,0-3-2.3-3-5.7c-0.1-8.2,20.2-17.4,34.5-17.4c14.7,0,22.5,9.1,21.7,31.1l-1.5,37
			c-0.2,6,1.6,7.7,5.5,7.7c4.7,0,7.9-2.7,7.9-2.7L855.2,142.8z M793.1,130.2c0,8.4,4.9,13.5,14.6,13.5c8.3,0,15.1-3.6,19.2-6.5
			c0.6-4.3,1.6-13.1,2.1-23.3l-13.4,2.2C796.4,119.3,793.1,123.7,793.1,130.2L793.1,130.2z"/>
		<path class="st0" d="M902.9,146c-0.1,1.5-0.4,3-0.8,4.3c0,0-7.9-0.4-18.7-0.4l-0.1,0.1l-0.2-0.1c-9.1,0-16.1,0.6-18,0.7
			c-0.2-1.1-0.4-2.2-0.7-3.3l10.7-5c0.9-8.1,2.3-28.8,2.3-77.3l0-19.4h0v-8.9v-1.3c-0.1-8.4-3-11.1-12.2-11.1h-1.7l-0.6-3.8
			c0,0,13.3-4.1,24.3-4.1c2.5,0,3.5,1,3.5,3c0,5.1-1.5,10.8-1.6,38.5l0,76.4c0.1,8.6,3.3,11.7,12.4,11.7H902.9L902.9,146z"/>
		<path class="st0" d="M955.9,142.9c11.4,0,19.6-6.7,19.6-6.7l2.5,3.3c0,0-11.6,12.5-28.3,12.5c-21.1,0-36-15.1-36-39.7
			c0-28.4,20.6-45.2,41-45.2c16.9,0,23.4,18.7,23.4,32.5c0,4.5-0.6,6.3-0.6,6.3s-6.3,0.7-39.1,0.7h-12.1
			C926.4,128.4,938.1,142.8,955.9,142.9L955.9,142.9z M926.6,101H937c17.3,0,25.3-0.8,28.7-1.3c-0.3-7-2.3-25.4-16.1-25.4
			C935.9,74.2,928.1,85.9,926.6,101z"/>
	</g>
	<g>
		<path class="st0" d="M183.7,193.6c0,0.9,16.7,1.5,42.5,1.8s60.4,0.3,96.3,0.3c71.8-0.4,148.5-0.9,167.9-1c1.6,0.4,3.7,0.2,3.7,0.2
			s1.4,0,4.1,0c4.3,0.5,7.6,1.6,8.6,0c36.9,0,146.4,0,225.3,0c3,0,5.9,0,8.7,0c1.5,0,3,0,4.4,0.1c2.5,0.1,4.8,0.2,7,0.3
			c4.3,0.2,8,0.6,11.2,1.1c6.5,1,11.2,2.3,15.8,4.1c9.1,3.4,17.7,8.3,38.7,13.7c41.9,10.9,48.6,2.6,48.6,2.6c2-1.6,3.5-6.1,5.1-8.5
			c3.4-5.2,7.8-11.3,13.1-11.9c3.5-0.4,6.6,1.7,9.1,5.1c0.2,0.3,3.5,5.6,3.2,5.9c14.4-13.7,6.1-26.8,6.1-26.8
			c7.3-4.4,21.5,2.3,21.5,2.3c-9.4,15.2,3.2,20.8,9.1,27.6c5.9,6.8,3.4,15.8,3.4,15.8c13.1-9.2,8.6-24.2,8.6-24.2
			c17,5.7,28.4-16.1,38.6-25.5c10.1-9.3,18.6-3.5,18.6-3.5s-5.6-13.8-20.6-6.8c-15.1,7-21.6,18.3-58.4,6
			C893.8,162,877.4,184,877.4,184c-3.3-9.3-9.2-3-14.1-0.6l-0.3,0.2c-1.4,0.6-2.9,1.1-4.4,1.4c-8.9,10.4-22.4,11-33.3,10.7
			c-8.7-0.2-17.4-1-26-1.9c-15.8-2.3-31.3-3.8-42.9-4.7c-5.8-0.4-10.6-0.7-13.9-1c-6.5-0.2-10.2-0.3-10.2-0.3h-238h0
			c-9.1,0.1-86.7,0.8-162,1.4c-37.7,0.5-74.8,1.1-102.4,1.8C201.9,191.8,183.7,192.6,183.7,193.6z"/>
	</g>
</g>
</svg>
